<svg version="1.1" id="Layer_1" xmlns="http://www.w3.org/2000/svg" xmlns:xlink="http://www.w3.org/1999/xlink" x="0px" y="0px"
	 width="400.554px" height="28.96px" viewBox="0 0 400.554 28.96" enable-background="new 0 0 400.554 28.96" xml:space="preserve">
	 <defs>
  <pattern id="sait" patternUnits="userSpaceOnUse" width="600" height="400">
    <image xlink:href="img/sait-parking-garage.jpg" x="0" y="0" width="600" height="400" />
  </pattern>
</defs>
<g fill="url(#sait)" />
	<path d="M13.92,28.48H8.4v-11L0,1.28h6.12l5,10.84l5-10.84h6.12l-8.32,16.2V28.48z"/>
	<path d="M23.081,10.74C24.494,8.914,26.854,8,30.161,8c3.306,0,5.666,0.914,7.08,2.74c1.413,1.827,2.12,4.394,2.12,7.7
		c0,7.014-3.067,10.52-9.2,10.52c-6.134,0-9.2-3.506-9.2-10.52C20.96,15.134,21.667,12.567,23.081,10.74z M27.221,22.96
		c0.546,0.96,1.526,1.44,2.94,1.44c1.413,0,2.393-0.48,2.94-1.44c0.546-0.96,0.82-2.466,0.82-4.52c0-2.053-0.273-3.546-0.82-4.48
		c-0.547-0.933-1.527-1.4-2.94-1.4c-1.414,0-2.394,0.467-2.94,1.4c-0.547,0.934-0.82,2.427-0.82,4.48
		C26.4,20.494,26.674,22,27.221,22.96z"/>
	<path d="M55.08,8.48h5.36v20h-5.32v-1.12c-1.92,1.067-3.587,1.6-5,1.6c-2.773,0-4.64-0.766-5.6-2.3c-0.96-1.533-1.44-4.1-1.44-7.7
		V8.48h5.36v10.56c0,1.974,0.16,3.32,0.48,4.04c0.32,0.72,1.093,1.08,2.32,1.08c1.173,0,2.28-0.187,3.32-0.56l0.52-0.16V8.48z"/>
	<path d="M65.4,28.48v-20h5.32v2.12c2.24-1.333,4.374-2.2,6.4-2.6v5.4c-2.16,0.454-4.014,0.92-5.56,1.4l-0.8,0.28v13.4H65.4z"/>
	<path d="M95.399,13.04v15.44h-5.36V13.04h-2.16V8.48h2.16V7.6c0-2.88,0.426-4.866,1.28-5.96C92.172,0.547,93.692,0,95.879,0
		c0.96,0,2.2,0.134,3.72,0.4l0.84,0.12l-0.08,4.36c-1.173-0.053-2.16-0.08-2.96-0.08c-0.8,0-1.333,0.214-1.6,0.64
		c-0.267,0.427-0.4,1.16-0.4,2.2v0.84h4.84v4.56H95.399z"/>
	<path d="M115.159,8.48h5.36v20h-5.32v-1.12c-1.92,1.067-3.587,1.6-5,1.6c-2.773,0-4.64-0.766-5.6-2.3
		c-0.96-1.533-1.44-4.1-1.44-7.7V8.48h5.36v10.56c0,1.974,0.16,3.32,0.48,4.04c0.32,0.72,1.093,1.08,2.32,1.08
		c1.173,0,2.28-0.187,3.32-0.56l0.52-0.16V8.48z"/>
	<path d="M136.559,13.04h-4.92v8.2c0,0.8,0.02,1.367,0.06,1.7c0.04,0.334,0.186,0.62,0.44,0.86c0.253,0.24,0.646,0.36,1.18,0.36
		l3.04-0.08l0.24,4.28c-1.787,0.4-3.147,0.6-4.08,0.6c-2.4,0-4.04-0.54-4.92-1.62s-1.32-3.073-1.32-5.98v-8.32h-2.36V8.48h2.36V2.92
		h5.36v5.56h4.92V13.04z"/>
	<path d="M151.838,8.48h5.36v20h-5.32v-1.12c-1.92,1.067-3.587,1.6-5,1.6c-2.773,0-4.64-0.766-5.6-2.3
		c-0.96-1.533-1.44-4.1-1.44-7.7V8.48h5.36v10.56c0,1.974,0.16,3.32,0.48,4.04c0.32,0.72,1.093,1.08,2.32,1.08
		c1.173,0,2.28-0.187,3.32-0.56l0.52-0.16V8.48z"/>
	<path d="M162.158,28.48v-20h5.32v2.12c2.24-1.333,4.374-2.2,6.4-2.6v5.4c-2.16,0.454-4.014,0.92-5.56,1.4l-0.8,0.28v13.4H162.158z"
		/>
	<path d="M182.418,23.42c0.626,0.547,1.526,0.82,2.7,0.82c2.48,0,4.693-0.08,6.64-0.24l1.12-0.12l0.08,3.96
		c-3.067,0.747-5.84,1.12-8.32,1.12c-3.014,0-5.2-0.8-6.56-2.4s-2.04-4.2-2.04-7.8c0-7.173,2.946-10.76,8.84-10.76
		c5.813,0,8.72,3.014,8.72,9.04l-0.4,3.72h-11.76C181.464,21.987,181.791,22.874,182.418,23.42z M188.318,16.68
		c0-1.6-0.253-2.713-0.76-3.34c-0.507-0.626-1.394-0.94-2.66-0.94s-2.16,0.327-2.68,0.98c-0.52,0.654-0.794,1.754-0.82,3.3H188.318z
		"/>
	<path d="M220.597,13.48c-3.307-0.426-5.62-0.64-6.94-0.64c-1.32,0-2.174,0.12-2.56,0.36c-0.387,0.24-0.58,0.62-0.58,1.14
		s0.26,0.88,0.78,1.08c0.52,0.2,1.853,0.494,4,0.88c2.146,0.387,3.673,1.02,4.58,1.9c0.906,0.88,1.36,2.307,1.36,4.28
		c0,4.32-2.68,6.48-8.04,6.48c-1.76,0-3.894-0.24-6.4-0.72l-1.28-0.24l0.16-4.48c3.306,0.427,5.606,0.64,6.9,0.64
		s2.173-0.126,2.64-0.38c0.466-0.253,0.7-0.633,0.7-1.14c0-0.506-0.247-0.88-0.74-1.12c-0.494-0.24-1.773-0.533-3.84-0.88
		c-2.067-0.346-3.607-0.933-4.62-1.76c-1.014-0.826-1.52-2.3-1.52-4.42s0.72-3.72,2.16-4.8c1.44-1.08,3.293-1.62,5.56-1.62
		c1.573,0,3.72,0.254,6.44,0.76l1.32,0.24L220.597,13.48z"/>
	<path d="M236.197,13.04h-4.92v8.2c0,0.8,0.02,1.367,0.06,1.7c0.04,0.334,0.186,0.62,0.44,0.86c0.253,0.24,0.646,0.36,1.18,0.36
		l3.04-0.08l0.24,4.28c-1.787,0.4-3.147,0.6-4.08,0.6c-2.4,0-4.04-0.54-4.92-1.62s-1.32-3.073-1.32-5.98v-8.32h-2.36V8.48h2.36V2.92
		h5.36v5.56h4.92V13.04z"/>
	<path d="M254.997,14.72v8.32c0.053,0.64,0.16,1.087,0.32,1.34c0.16,0.254,0.493,0.434,1,0.54l-0.16,4.04
		c-1.36,0-2.447-0.094-3.26-0.28c-0.814-0.187-1.634-0.56-2.46-1.12c-1.92,0.933-3.88,1.4-5.88,1.4c-4.134,0-6.2-2.186-6.2-6.56
		c0-2.133,0.573-3.646,1.72-4.54c1.146-0.893,2.906-1.42,5.28-1.58l4.28-0.32v-1.24c0-0.827-0.187-1.394-0.56-1.7
		c-0.374-0.306-0.974-0.46-1.8-0.46l-7.52,0.32l-0.16-3.72c2.853-0.773,5.566-1.16,8.14-1.16c2.573,0,4.426,0.534,5.56,1.6
		C254.43,10.667,254.997,12.374,254.997,14.72z M245.997,20c-1.494,0.134-2.24,0.934-2.24,2.4c0,1.467,0.653,2.2,1.96,2.2
		c1.013,0,2.12-0.16,3.32-0.48l0.6-0.16v-4.28L245.997,20z"/>
	<path d="M260.116,28.48v-20h5.32v2.12c2.24-1.333,4.374-2.2,6.4-2.6v5.4c-2.16,0.454-4.014,0.92-5.56,1.4l-0.8,0.28v13.4H260.116z"
		/>
	<path d="M286.076,13.04h-4.92v8.2c0,0.8,0.02,1.367,0.06,1.7c0.04,0.334,0.186,0.62,0.44,0.86c0.253,0.24,0.646,0.36,1.18,0.36
		l3.04-0.08l0.24,4.28c-1.787,0.4-3.147,0.6-4.08,0.6c-2.4,0-4.04-0.54-4.92-1.62s-1.32-3.073-1.32-5.98v-8.32h-2.36V8.48h2.36V2.92
		h5.36v5.56h4.92V13.04z"/>
	<path d="M303.916,13.48c-3.307-0.426-5.62-0.64-6.939-0.64c-1.32,0-2.174,0.12-2.561,0.36c-0.387,0.24-0.58,0.62-0.58,1.14
		s0.26,0.88,0.78,1.08c0.52,0.2,1.854,0.494,4,0.88c2.146,0.387,3.673,1.02,4.58,1.9c0.906,0.88,1.36,2.307,1.36,4.28
		c0,4.32-2.681,6.48-8.04,6.48c-1.761,0-3.895-0.24-6.4-0.72l-1.28-0.24l0.16-4.48c3.307,0.427,5.606,0.64,6.9,0.64
		c1.293,0,2.173-0.126,2.64-0.38c0.466-0.253,0.7-0.633,0.7-1.14c0-0.506-0.247-0.88-0.74-1.12c-0.494-0.24-1.773-0.533-3.84-0.88
		c-2.067-0.346-3.606-0.933-4.62-1.76c-1.014-0.826-1.52-2.3-1.52-4.42s0.72-3.72,2.161-4.8c1.439-1.08,3.293-1.62,5.56-1.62
		c1.573,0,3.72,0.254,6.439,0.76l1.32,0.24L303.916,13.48z"/>
	<path d="M322.595,28.48h-5.359v-28h5.359v8.96c1.84-0.96,3.493-1.44,4.96-1.44c2.666,0,4.507,0.787,5.521,2.36
		c1.013,1.574,1.52,4,1.52,7.28v10.84h-5.359V17.76c0-1.68-0.2-2.926-0.601-3.74c-0.399-0.813-1.2-1.22-2.399-1.22
		c-1.04,0-2.08,0.16-3.12,0.48l-0.521,0.16V28.48z"/>
	<path d="M344.735,23.42c0.626,0.547,1.526,0.82,2.699,0.82c2.48,0,4.693-0.08,6.641-0.24l1.12-0.12l0.08,3.96
		c-3.067,0.747-5.841,1.12-8.32,1.12c-3.014,0-5.2-0.8-6.561-2.4c-1.359-1.6-2.039-4.2-2.039-7.8c0-7.173,2.945-10.76,8.84-10.76
		c5.812,0,8.72,3.014,8.72,9.04l-0.4,3.72h-11.76C343.781,21.987,344.108,22.874,344.735,23.42z M350.635,16.68
		c0-1.6-0.254-2.713-0.76-3.34c-0.507-0.626-1.394-0.94-2.66-0.94s-2.16,0.327-2.68,0.98c-0.521,0.654-0.794,1.754-0.82,3.3H350.635
		z"/>
	<path d="M359.755,28.48v-20h5.319v2.12c2.24-1.333,4.373-2.2,6.4-2.6v5.4c-2.16,0.454-4.014,0.92-5.561,1.4l-0.8,0.28v13.4H359.755
		z"/>
	<path d="M380.015,23.42c0.626,0.547,1.526,0.82,2.699,0.82c2.48,0,4.693-0.08,6.641-0.24l1.12-0.12l0.08,3.96
		c-3.067,0.747-5.841,1.12-8.32,1.12c-3.014,0-5.2-0.8-6.561-2.4c-1.359-1.6-2.039-4.2-2.039-7.8c0-7.173,2.945-10.76,8.84-10.76
		c5.812,0,8.72,3.014,8.72,9.04l-0.4,3.72h-11.76C379.061,21.987,379.388,22.874,380.015,23.42z M385.914,16.68
		c0-1.6-0.254-2.713-0.76-3.34c-0.507-0.626-1.394-0.94-2.66-0.94s-2.16,0.327-2.68,0.98c-0.521,0.654-0.794,1.754-0.82,3.3H385.914
		z"/>
	<path d="M394.794,28.48v-6.64h5.76v6.64H394.794z"/>
</g>
</svg>
