<svg xmlns="http://www.w3.org/2000/svg" width="400.554" height="28.96"><path d="M13.92 28.48H8.4v-11L0 1.28h6.12l5 10.84 5-10.84h6.12l-8.32 16.2v11zm9.161-17.74C24.494 8.914 26.854 8 30.161 8c3.306 0 5.666.914 7.08 2.74 1.413 1.827 2.12 4.394 2.12 7.7 0 7.014-3.067 10.52-9.2 10.52-6.134 0-9.2-3.506-9.2-10.52-.001-3.306.706-5.873 2.12-7.7zm4.14 12.22c.546.96 1.526 1.44 2.94 1.44 1.413 0 2.393-.48 2.94-1.44.546-.96.82-2.466.82-4.52 0-2.053-.273-3.546-.82-4.48-.547-.933-1.527-1.4-2.94-1.4-1.414 0-2.394.467-2.94 1.4-.547.934-.82 2.427-.82 4.48-.001 2.054.273 3.56.82 4.52zM55.08 8.48h5.36v20h-5.32v-1.12c-1.92 1.067-3.587 1.6-5 1.6-2.773 0-4.64-.766-5.6-2.3-.96-1.533-1.44-4.1-1.44-7.7V8.48h5.36v10.56c0 1.974.16 3.32.48 4.04.32.72 1.093 1.08 2.32 1.08 1.173 0 2.28-.187 3.32-.56l.52-.16V8.48zm10.32 20v-20h5.32v2.12c2.24-1.333 4.374-2.2 6.4-2.6v5.4c-2.16.454-4.014.92-5.56 1.4l-.8.28v13.4H65.4zm29.999-15.44v15.44h-5.36V13.04h-2.16V8.48h2.16V7.6c0-2.88.426-4.866 1.28-5.96C92.172.547 93.692 0 95.879 0c.96 0 2.2.134 3.72.4l.84.12-.08 4.36a67.518 67.518 0 00-2.96-.08c-.8 0-1.333.214-1.6.64-.267.427-.4 1.16-.4 2.2v.84h4.84v4.56h-4.84zm19.76-4.56h5.36v20h-5.32v-1.12c-1.92 1.067-3.587 1.6-5 1.6-2.773 0-4.64-.766-5.6-2.3-.96-1.533-1.44-4.1-1.44-7.7V8.48h5.36v10.56c0 1.974.16 3.32.48 4.04.32.72 1.093 1.08 2.32 1.08 1.173 0 2.28-.187 3.32-.56l.52-.16V8.48zm21.4 4.56h-4.92v8.2c0 .8.02 1.367.06 1.7.04.334.186.62.44.86.253.24.646.36 1.18.36l3.04-.08.24 4.28c-1.787.4-3.147.6-4.08.6-2.4 0-4.04-.54-4.92-1.62s-1.32-3.073-1.32-5.98v-8.32h-2.36V8.48h2.36V2.92h5.36v5.56h4.92v4.56zm15.279-4.56h5.36v20h-5.32v-1.12c-1.92 1.067-3.587 1.6-5 1.6-2.773 0-4.64-.766-5.6-2.3-.96-1.533-1.44-4.1-1.44-7.7V8.48h5.36v10.56c0 1.974.16 3.32.48 4.04.32.72 1.093 1.08 2.32 1.08 1.173 0 2.28-.187 3.32-.56l.52-.16V8.48zm10.32 20v-20h5.32v2.12c2.24-1.333 4.374-2.2 6.4-2.6v5.4c-2.16.454-4.014.92-5.56 1.4l-.8.28v13.4h-5.36zm20.26-5.06c.626.547 1.526.82 2.7.82 2.48 0 4.693-.08 6.64-.24l1.12-.12.08 3.96c-3.067.747-5.84 1.12-8.32 1.12-3.014 0-5.2-.8-6.56-2.4s-2.04-4.2-2.04-7.8c0-7.173 2.946-10.76 8.84-10.76 5.813 0 8.72 3.014 8.72 9.04l-.4 3.72h-11.76c.026 1.227.353 2.114.98 2.66zm5.9-6.74c0-1.6-.253-2.713-.76-3.34-.507-.626-1.394-.94-2.66-.94s-2.16.327-2.68.98c-.52.654-.794 1.754-.82 3.3h6.92zm32.279-3.2c-3.307-.426-5.62-.64-6.94-.64-1.32 0-2.174.12-2.56.36-.387.24-.58.62-.58 1.14s.26.88.78 1.08c.52.2 1.853.494 4 .88 2.146.387 3.673 1.02 4.58 1.9.906.88 1.36 2.307 1.36 4.28 0 4.32-2.68 6.48-8.04 6.48-1.76 0-3.894-.24-6.4-.72l-1.28-.24.16-4.48c3.306.427 5.606.64 6.9.64s2.173-.126 2.64-.38c.466-.253.7-.633.7-1.14 0-.506-.247-.88-.74-1.12-.494-.24-1.773-.533-3.84-.88-2.067-.346-3.607-.933-4.62-1.76-1.014-.826-1.52-2.3-1.52-4.42s.72-3.72 2.16-4.8c1.44-1.08 3.293-1.62 5.56-1.62 1.573 0 3.72.254 6.44.76l1.32.24-.08 4.44zm15.6-.44h-4.92v8.2c0 .8.02 1.367.06 1.7.04.334.186.62.44.86.253.24.646.36 1.18.36l3.04-.08.24 4.28c-1.787.4-3.147.6-4.08.6-2.4 0-4.04-.54-4.92-1.62s-1.32-3.073-1.32-5.98v-8.32h-2.36V8.48h2.36V2.92h5.36v5.56h4.92v4.56zm18.8 1.68v8.32c.053.64.16 1.087.32 1.34.16.254.493.434 1 .54l-.16 4.04c-1.36 0-2.447-.094-3.26-.28-.814-.187-1.634-.56-2.46-1.12-1.92.933-3.88 1.4-5.88 1.4-4.134 0-6.2-2.186-6.2-6.56 0-2.133.573-3.646 1.72-4.54 1.146-.893 2.906-1.42 5.28-1.58l4.28-.32v-1.24c0-.827-.187-1.394-.56-1.7-.374-.306-.974-.46-1.8-.46l-7.52.32-.16-3.72c2.853-.773 5.566-1.16 8.14-1.16 2.573 0 4.426.534 5.56 1.6 1.133 1.067 1.7 2.774 1.7 5.12zm-9 5.28c-1.494.134-2.24.934-2.24 2.4 0 1.467.653 2.2 1.96 2.2 1.013 0 2.12-.16 3.32-.48l.6-.16v-4.28l-3.64.32zm14.119 8.48v-20h5.32v2.12c2.24-1.333 4.374-2.2 6.4-2.6v5.4c-2.16.454-4.014.92-5.56 1.4l-.8.28v13.4h-5.36zm25.96-15.44h-4.92v8.2c0 .8.02 1.367.06 1.7.04.334.186.62.44.86.253.24.646.36 1.18.36l3.04-.08.24 4.28c-1.787.4-3.147.6-4.08.6-2.4 0-4.04-.54-4.92-1.62s-1.32-3.073-1.32-5.98v-8.32h-2.36V8.48h2.36V2.92h5.36v5.56h4.92v4.56zm17.84.44c-3.307-.426-5.62-.64-6.939-.64-1.32 0-2.174.12-2.561.36s-.58.62-.58 1.14.26.88.78 1.08c.52.2 1.854.494 4 .88 2.146.387 3.673 1.02 4.58 1.9.906.88 1.36 2.307 1.36 4.28 0 4.32-2.681 6.48-8.04 6.48-1.761 0-3.895-.24-6.4-.72l-1.28-.24.16-4.48c3.307.427 5.606.64 6.9.64 1.293 0 2.173-.126 2.64-.38.466-.253.7-.633.7-1.14 0-.506-.247-.88-.74-1.12-.494-.24-1.773-.533-3.84-.88-2.067-.346-3.606-.933-4.62-1.76-1.014-.826-1.52-2.3-1.52-4.42s.72-3.72 2.161-4.8c1.439-1.08 3.293-1.62 5.56-1.62 1.573 0 3.72.254 6.439.76l1.32.24-.08 4.44zm18.679 15h-5.359v-28h5.359v8.96c1.84-.96 3.493-1.44 4.96-1.44 2.666 0 4.507.787 5.521 2.36 1.013 1.574 1.52 4 1.52 7.28v10.84h-5.359V17.76c0-1.68-.2-2.926-.601-3.74-.399-.813-1.2-1.22-2.399-1.22-1.04 0-2.08.16-3.12.48l-.521.16v15.04zm22.14-5.06c.626.547 1.526.82 2.699.82 2.48 0 4.693-.08 6.641-.24l1.12-.12.08 3.96c-3.067.747-5.841 1.12-8.32 1.12-3.014 0-5.2-.8-6.561-2.4-1.359-1.6-2.039-4.2-2.039-7.8 0-7.173 2.945-10.76 8.84-10.76 5.812 0 8.72 3.014 8.72 9.04l-.4 3.72h-11.76c.026 1.227.353 2.114.98 2.66zm5.9-6.74c0-1.6-.254-2.713-.76-3.34-.507-.626-1.394-.94-2.66-.94s-2.16.327-2.68.98c-.521.654-.794 1.754-.82 3.3h6.92zm9.12 11.8v-20h5.319v2.12c2.24-1.333 4.373-2.2 6.4-2.6v5.4c-2.16.454-4.014.92-5.561 1.4l-.8.28v13.4h-5.358zm20.26-5.06c.626.547 1.526.82 2.699.82 2.48 0 4.693-.08 6.641-.24l1.12-.12.08 3.96c-3.067.747-5.841 1.12-8.32 1.12-3.014 0-5.2-.8-6.561-2.4-1.359-1.6-2.039-4.2-2.039-7.8 0-7.173 2.945-10.76 8.84-10.76 5.812 0 8.72 3.014 8.72 9.04l-.4 3.72h-11.76c.026 1.227.353 2.114.98 2.66zm5.899-6.74c0-1.6-.254-2.713-.76-3.34-.507-.626-1.394-.94-2.66-.94s-2.16.327-2.68.98c-.521.654-.794 1.754-.82 3.3h6.92zm8.88 11.8v-6.64h5.76v6.64h-5.76z"/></svg>